<svg xmlns="http://www.w3.org/2000/svg" xmlns:xlink="http://www.w3.org/1999/xlink" width="900" zoomAndPan="magnify" viewBox="0 0 675 675.000002" height="900" preserveAspectRatio="xMidYMid meet" version="1.0"><defs><g/></defs><g fill="#ffffff" fill-opacity="1"><g transform="translate(64.22021, 408.441123)"><g><path d="M 144.375 -129.953125 C 140.21875 -129.828125 137.164062 -128.953125 135.21875 -127.328125 C 133.269531 -125.703125 132.035156 -123.625 131.515625 -121.09375 C 130.992188 -118.5625 130.601562 -114.828125 130.34375 -109.890625 L 130.15625 -106 L 124.703125 2.140625 L 115.34375 2.140625 L 35.65625 -111.640625 L 35.265625 -111.640625 L 32.15625 -27.078125 C 32.019531 -25.785156 31.953125 -23.90625 31.953125 -21.4375 C 31.691406 -15.195312 31.300781 -10.648438 30.78125 -7.796875 L 44.8125 -8.578125 L 44.421875 0 L 8.765625 0 L 8.96875 -6.4375 C 17.664062 -6.4375 22.210938 -11.566406 22.609375 -21.828125 L 27.859375 -128.59375 L 14.8125 -127.8125 L 15.203125 -136.390625 L 38.390625 -136.390625 L 116.71875 -24.9375 L 117.09375 -24.9375 L 121.1875 -114.5625 C 121.582031 -120.925781 122.039062 -125.601562 122.5625 -128.59375 L 108.53125 -127.8125 L 108.921875 -136.390625 L 144.765625 -136.390625 Z M 144.375 -129.953125 "/></g></g></g><g fill="#ffffff" fill-opacity="1"><g transform="translate(212.686147, 408.441123)"><g><path d="M 54.953125 -99.5625 C 62.742188 -99.5625 69.234375 -97.742188 74.421875 -94.109375 C 79.617188 -90.472656 82.21875 -84.820312 82.21875 -77.15625 C 82.21875 -67.539062 76.4375 -60.070312 64.875 -54.75 C 53.320312 -49.425781 39.945312 -45.921875 24.75 -44.234375 C 24.75 -32.023438 26.566406 -22.863281 30.203125 -16.75 C 33.835938 -10.644531 39.421875 -7.59375 46.953125 -7.59375 C 52.929688 -7.59375 58.710938 -9.570312 64.296875 -13.53125 C 69.878906 -17.5 74.75 -23.378906 78.90625 -31.171875 L 85.34375 -27.46875 C 79.882812 -17.207031 73.773438 -9.707031 67.015625 -4.96875 C 60.265625 -0.226562 52.472656 2.140625 43.640625 2.140625 C 31.691406 2.140625 22.695312 -1.59375 16.65625 -9.0625 C 10.613281 -16.53125 7.59375 -26.820312 7.59375 -39.9375 C 7.59375 -50.457031 9.378906 -60.234375 12.953125 -69.265625 C 16.523438 -78.296875 21.882812 -85.601562 29.03125 -91.1875 C 36.175781 -96.769531 44.816406 -99.5625 54.953125 -99.5625 Z M 52.21875 -92.9375 C 43.90625 -92.9375 37.472656 -88.910156 32.921875 -80.859375 C 28.378906 -72.804688 25.71875 -62.9375 24.9375 -51.25 C 36.238281 -52.800781 45.914062 -55.914062 53.96875 -60.59375 C 62.019531 -65.269531 66.046875 -71.113281 66.046875 -78.125 C 66.046875 -82.414062 64.84375 -85.957031 62.4375 -88.75 C 60.039062 -91.539062 56.632812 -92.9375 52.21875 -92.9375 Z M 52.21875 -92.9375 "/></g></g></g><g fill="#ffffff" fill-opacity="1"><g transform="translate(305.623529, 408.441123)"><g><path d="M 89.828125 -99.5625 C 93.203125 -99.5625 95.796875 -98.679688 97.609375 -96.921875 C 99.429688 -95.171875 100.34375 -92.867188 100.34375 -90.015625 C 100.34375 -87.804688 99.5625 -85.859375 98 -84.171875 C 96.445312 -82.484375 94.566406 -81.640625 92.359375 -81.640625 C 89.890625 -81.640625 88.101562 -82.15625 87 -83.1875 C 85.894531 -84.226562 84.691406 -85.660156 83.390625 -87.484375 C 76.242188 -86.441406 68.0625 -74.492188 58.84375 -51.640625 L 60.203125 -48.125 C 65.535156 -34.351562 69.953125 -24.515625 73.453125 -18.609375 C 76.960938 -12.703125 80.273438 -9.75 83.390625 -9.75 C 88.066406 -9.75 91.378906 -14.878906 93.328125 -25.140625 L 98.78125 -24.359375 C 96.445312 -6.691406 89.953125 2.140625 79.296875 2.140625 C 74.878906 2.140625 71.304688 1.132812 68.578125 -0.875 C 65.859375 -2.882812 63.097656 -6.648438 60.296875 -12.171875 C 57.503906 -17.691406 53.644531 -26.753906 48.71875 -39.359375 L 48.515625 -39.359375 C 44.484375 -27.410156 40.519531 -18.414062 36.625 -12.375 C 32.726562 -6.332031 29.125 -2.398438 25.8125 -0.578125 C 22.5 1.234375 18.894531 2.140625 15 2.140625 C 11.363281 2.140625 8.441406 1.234375 6.234375 -0.578125 C 4.023438 -2.398438 2.921875 -4.804688 2.921875 -7.796875 C 2.921875 -10.390625 3.695312 -12.53125 5.25 -14.21875 C 6.8125 -15.90625 8.695312 -16.75 10.90625 -16.75 C 15.457031 -16.75 17.925781 -14.085938 18.3125 -8.765625 C 26.238281 -7.078125 35.070312 -20.519531 44.8125 -49.09375 C 42.21875 -56.113281 40.53125 -60.789062 39.75 -63.125 C 36.113281 -73 33.414062 -79.5625 31.65625 -82.8125 C 29.90625 -86.0625 27.734375 -87.6875 25.140625 -87.6875 C 19.160156 -87.6875 15.847656 -81.316406 15.203125 -68.578125 L 9.546875 -68.390625 C 9.546875 -75.921875 11.070312 -83 14.125 -89.625 C 17.175781 -96.25 22.535156 -99.5625 30.203125 -99.5625 C 34.097656 -99.5625 37.242188 -98.519531 39.640625 -96.4375 C 42.046875 -94.363281 44.03125 -91.539062 45.59375 -87.96875 C 47.15625 -84.394531 49.234375 -78.84375 51.828125 -71.3125 C 52.609375 -68.582031 53.773438 -65.207031 55.328125 -61.1875 L 55.53125 -61.1875 C 61.507812 -76.125 67.453125 -86.253906 73.359375 -91.578125 C 79.265625 -96.898438 84.753906 -99.5625 89.828125 -99.5625 Z M 89.828125 -99.5625 "/></g></g></g><g fill="#ffffff" fill-opacity="1"><g transform="translate(411.809787, 408.441123)"><g><path d="M 25.921875 -99.5625 C 31.109375 -99.5625 35.035156 -97.9375 37.703125 -94.6875 C 40.367188 -91.445312 41.703125 -86.773438 41.703125 -80.671875 C 41.703125 -75.992188 40.660156 -66.25 38.578125 -51.4375 C 38.453125 -50.269531 37.867188 -45.882812 36.828125 -38.28125 C 35.785156 -30.6875 35.265625 -24.359375 35.265625 -19.296875 C 35.265625 -16.171875 35.945312 -13.34375 37.3125 -10.8125 C 38.675781 -8.28125 41.046875 -7.015625 44.421875 -7.015625 C 50.140625 -7.015625 55.851562 -11.332031 61.5625 -19.96875 C 67.28125 -28.601562 71.988281 -39.222656 75.6875 -51.828125 C 79.394531 -64.429688 81.25 -76.1875 81.25 -87.09375 C 81.25 -89.5625 81.117188 -93.003906 80.859375 -97.421875 L 97.234375 -97.421875 C 97.359375 -96.253906 97.421875 -94.566406 97.421875 -92.359375 C 97.421875 -89.242188 97.09375 -84.4375 96.4375 -77.9375 C 95.789062 -71.445312 94.820312 -63.003906 93.53125 -52.609375 L 91.578125 -36.4375 C 91.441406 -34.75 91.113281 -31.628906 90.59375 -27.078125 C 90.082031 -22.535156 89.828125 -18.960938 89.828125 -16.359375 C 89.828125 -10.648438 91.578125 -7.796875 95.078125 -7.796875 C 97.546875 -7.796875 100.078125 -9.320312 102.671875 -12.375 C 105.273438 -15.425781 107.488281 -20.132812 109.3125 -26.5 L 114.765625 -25.328125 C 114.109375 -21.691406 112.707031 -17.726562 110.5625 -13.4375 C 108.425781 -9.15625 105.570312 -5.488281 102 -2.4375 C 98.425781 0.613281 94.238281 2.140625 89.4375 2.140625 C 84.363281 2.140625 80.59375 0.582031 78.125 -2.53125 C 75.664062 -5.644531 74.4375 -9.929688 74.4375 -15.390625 C 74.4375 -21.109375 75.601562 -29.8125 77.9375 -41.5 L 77.359375 -41.5 C 71.117188 -24.738281 65.140625 -13.273438 59.421875 -7.109375 C 53.710938 -0.941406 47.414062 2.140625 40.53125 2.140625 C 33.25 2.140625 27.890625 -0.226562 24.453125 -4.96875 C 21.015625 -9.707031 19.296875 -15.78125 19.296875 -23.1875 C 19.296875 -28.769531 19.617188 -34.421875 20.265625 -40.140625 C 20.910156 -45.859375 21.882812 -52.742188 23.1875 -60.796875 C 23.445312 -62.222656 23.898438 -65.238281 24.546875 -69.84375 C 25.203125 -74.457031 25.53125 -78.066406 25.53125 -80.671875 C 25.53125 -83.648438 25.171875 -85.921875 24.453125 -87.484375 C 23.734375 -89.046875 22.335938 -89.828125 20.265625 -89.828125 C 17.921875 -89.828125 15.515625 -88.300781 13.046875 -85.25 C 10.585938 -82.195312 8.445312 -77.421875 6.625 -70.921875 L 1.171875 -72.09375 C 2.335938 -78.457031 5.03125 -84.625 9.25 -90.59375 C 13.476562 -96.570312 19.035156 -99.5625 25.921875 -99.5625 Z M 25.921875 -99.5625 "/></g></g></g><g fill="#ffffff" fill-opacity="1"><g transform="translate(527.348231, 408.441123)"><g><path d="M 44.234375 -99.5625 C 51.890625 -99.5625 58.609375 -97.773438 64.390625 -94.203125 C 70.171875 -90.628906 73.0625 -86.050781 73.0625 -80.46875 C 73.0625 -77.738281 72.28125 -75.5625 70.71875 -73.9375 C 69.164062 -72.3125 67.222656 -71.5 64.890625 -71.5 C 62.679688 -71.5 60.828125 -72.28125 59.328125 -73.84375 C 57.835938 -75.40625 57.09375 -77.222656 57.09375 -79.296875 C 57.09375 -81.503906 57.675781 -83.519531 58.84375 -85.34375 C 58.0625 -87.675781 56.367188 -89.554688 53.765625 -90.984375 C 51.171875 -92.421875 47.796875 -93.140625 43.640625 -93.140625 C 39.097656 -93.140625 34.972656 -91.675781 31.265625 -88.75 C 27.566406 -85.832031 25.71875 -82.164062 25.71875 -77.75 C 25.71875 -73.976562 27.40625 -70.597656 30.78125 -67.609375 C 34.15625 -64.617188 39.351562 -61.113281 46.375 -57.09375 C 52.21875 -53.707031 56.957031 -50.679688 60.59375 -48.015625 C 64.226562 -45.359375 67.3125 -42.210938 69.84375 -38.578125 C 72.382812 -34.941406 73.65625 -30.847656 73.65625 -26.296875 C 73.65625 -20.847656 72.128906 -15.976562 69.078125 -11.6875 C 66.023438 -7.40625 61.703125 -4.03125 56.109375 -1.5625 C 50.523438 0.90625 44.160156 2.140625 37.015625 2.140625 C 28.578125 2.140625 21.269531 0.257812 15.09375 -3.5 C 8.925781 -7.269531 5.84375 -12.335938 5.84375 -18.703125 C 5.84375 -21.429688 6.65625 -23.703125 8.28125 -25.515625 C 9.90625 -27.335938 11.882812 -28.25 14.21875 -28.25 C 16.6875 -28.25 18.632812 -27.4375 20.0625 -25.8125 C 21.5 -24.1875 22.21875 -22.269531 22.21875 -20.0625 C 22.21875 -17.851562 21.628906 -15.84375 20.453125 -14.03125 C 21.367188 -11.300781 23.382812 -9.125 26.5 -7.5 C 29.613281 -5.875 32.988281 -5.0625 36.625 -5.0625 C 43.507812 -5.0625 48.738281 -6.648438 52.3125 -9.828125 C 55.882812 -13.015625 57.671875 -17.597656 57.671875 -23.578125 C 57.671875 -27.859375 55.851562 -31.625 52.21875 -34.875 C 48.582031 -38.125 43.0625 -41.890625 35.65625 -46.171875 C 27.34375 -50.984375 21.070312 -55.335938 16.84375 -59.234375 C 12.625 -63.128906 10.515625 -67.804688 10.515625 -73.265625 C 10.515625 -77.941406 11.941406 -82.289062 14.796875 -86.3125 C 17.660156 -90.34375 21.65625 -93.554688 26.78125 -95.953125 C 31.914062 -98.359375 37.734375 -99.5625 44.234375 -99.5625 Z M 44.234375 -99.5625 "/></g></g></g></svg>