<svg xmlns="http://www.w3.org/2000/svg" xmlns:xlink="http://www.w3.org/1999/xlink" width="900" zoomAndPan="magnify" viewBox="0 0 675 374.999991" height="500" preserveAspectRatio="xMidYMid meet" version="1.0"><defs><g/></defs><g fill="#ffffff" fill-opacity="1"><g transform="translate(132.58349, 240.88262)"><g><path d="M 109.65625 -91.84375 C 107.050781 -91.75 105.046875 -91.4375 103.640625 -90.90625 C 102.242188 -90.375 101.109375 -89.238281 100.234375 -87.5 C 99.367188 -85.757812 98.84375 -83.003906 98.65625 -79.234375 L 94.296875 1.453125 L 81.984375 1.453125 L 38.828125 -58.09375 C 36.117188 -61.851562 33.65625 -65.472656 31.4375 -68.953125 L 31.296875 -68.953125 L 29.265625 -23.75 C 28.972656 -18.25 28.535156 -13.90625 27.953125 -10.71875 C 31.140625 -11.007812 34.8125 -11.15625 38.96875 -11.15625 L 38.25 0 L 5.21875 0 L 5.796875 -9.5625 C 8.398438 -9.65625 10.398438 -9.96875 11.796875 -10.5 C 13.203125 -11.03125 14.335938 -12.164062 15.203125 -13.90625 C 16.078125 -15.644531 16.609375 -18.394531 16.796875 -22.15625 L 19.265625 -77.640625 C 19.554688 -83.148438 19.988281 -87.5 20.5625 -90.6875 L 9.5625 -90.25 L 10.28125 -101.40625 L 33.03125 -101.40625 L 74.3125 -45.34375 C 76.726562 -41.957031 79.867188 -37.320312 83.734375 -31.4375 L 83.875 -31.4375 L 86.1875 -77.640625 C 86.476562 -83.148438 86.914062 -87.5 87.5 -90.6875 L 76.484375 -90.25 L 77.203125 -101.40625 L 110.09375 -101.40625 Z M 109.65625 -91.84375 "/></g></g></g><g fill="#ffffff" fill-opacity="1"><g transform="translate(244.417495, 240.88262)"><g><path d="M 40.5625 -74.015625 C 47.226562 -74.015625 52.515625 -72.519531 56.421875 -69.53125 C 60.335938 -66.539062 62.296875 -61.953125 62.296875 -55.765625 C 62.296875 -48.722656 58.625 -43.410156 51.28125 -39.828125 C 43.9375 -36.253906 34.757812 -33.695312 23.75 -32.15625 C 23.75 -24.625 25.003906 -19.335938 27.515625 -16.296875 C 30.035156 -13.253906 33.128906 -11.734375 36.796875 -11.734375 C 40.078125 -11.734375 43.457031 -12.722656 46.9375 -14.703125 C 50.414062 -16.679688 53.3125 -20.328125 55.625 -25.640625 L 63.734375 -21.734375 C 59.867188 -12.847656 55.328125 -6.738281 50.109375 -3.40625 C 44.898438 -0.0703125 39.015625 1.59375 32.453125 1.59375 C 23.472656 1.59375 16.46875 -1.0625 11.4375 -6.375 C 6.414062 -11.6875 3.90625 -19.554688 3.90625 -29.984375 C 3.90625 -36.742188 5.253906 -43.503906 7.953125 -50.265625 C 10.660156 -57.023438 14.765625 -62.671875 20.265625 -67.203125 C 25.773438 -71.742188 32.539062 -74.015625 40.5625 -74.015625 Z M 38.96875 -64.46875 C 34.519531 -64.46875 31.113281 -62.242188 28.75 -57.796875 C 26.382812 -53.359375 24.863281 -47.953125 24.1875 -41.578125 C 31.53125 -42.929688 36.890625 -44.984375 40.265625 -47.734375 C 43.648438 -50.484375 45.34375 -53.742188 45.34375 -57.515625 C 45.34375 -59.828125 44.691406 -61.5625 43.390625 -62.71875 C 42.085938 -63.882812 40.613281 -64.46875 38.96875 -64.46875 Z M 38.96875 -64.46875 "/></g></g></g><g fill="#ffffff" fill-opacity="1"><g transform="translate(312.502986, 240.88262)"><g><path d="M 62.578125 -74.015625 C 65.960938 -74.015625 68.5 -73.117188 70.1875 -71.328125 C 71.875 -69.546875 72.71875 -67.160156 72.71875 -64.171875 C 72.71875 -61.753906 71.820312 -59.628906 70.03125 -57.796875 C 68.25 -55.960938 66.101562 -55.046875 63.59375 -55.046875 C 60.601562 -55.046875 58.285156 -56.0625 56.640625 -58.09375 C 55.285156 -57.03125 53.90625 -55.21875 52.5 -52.65625 C 51.101562 -50.09375 49.148438 -45.769531 46.640625 -39.6875 C 50.023438 -30.320312 53.257812 -22.890625 56.34375 -17.390625 C 57.40625 -15.359375 58.367188 -13.929688 59.234375 -13.109375 C 60.109375 -12.285156 60.984375 -11.875 61.859375 -11.875 C 63.304688 -11.875 64.460938 -12.625 65.328125 -14.125 C 66.203125 -15.625 66.878906 -18.5 67.359375 -22.75 L 75.46875 -21.578125 C 74.894531 -15.597656 73.132812 -10.238281 70.1875 -5.5 C 67.238281 -0.769531 62.335938 1.59375 55.484375 1.59375 C 51.523438 1.59375 48.238281 0.316406 45.625 -2.234375 C 43.019531 -4.796875 40.847656 -8.203125 39.109375 -12.453125 L 34.46875 -23.328125 L 34.328125 -23.328125 C 32.015625 -16.460938 29.742188 -11.195312 27.515625 -7.53125 C 25.296875 -3.863281 23.097656 -1.425781 20.921875 -0.21875 C 18.753906 0.988281 16.414062 1.59375 13.90625 1.59375 C 10.425781 1.59375 7.625 0.675781 5.5 -1.15625 C 3.375 -2.988281 2.3125 -5.40625 2.3125 -8.40625 C 2.3125 -11.300781 3.203125 -13.710938 4.984375 -15.640625 C 6.773438 -17.578125 8.925781 -18.546875 11.4375 -18.546875 C 13.5625 -18.546875 15.320312 -18.015625 16.71875 -16.953125 C 18.125 -15.890625 19.070312 -14.632812 19.5625 -13.1875 C 20.90625 -14.050781 22.347656 -16.195312 23.890625 -19.625 C 25.441406 -23.050781 27.519531 -28.628906 30.125 -36.359375 C 28.875 -39.835938 27.8125 -42.878906 26.9375 -45.484375 C 26.550781 -46.453125 25.992188 -48 25.265625 -50.125 C 24.546875 -52.25 23.847656 -54.082031 23.171875 -55.625 C 22.304688 -57.550781 21.488281 -58.851562 20.71875 -59.53125 C 19.945312 -60.207031 19.03125 -60.546875 17.96875 -60.546875 C 14.78125 -60.546875 12.75 -56.925781 11.875 -49.6875 L 3.765625 -50.84375 C 4.347656 -56.539062 6.328125 -61.828125 9.703125 -66.703125 C 13.085938 -71.578125 18.207031 -74.015625 25.0625 -74.015625 C 28.820312 -74.015625 31.738281 -72.953125 33.8125 -70.828125 C 35.894531 -68.710938 37.707031 -65.578125 39.25 -61.421875 C 40.3125 -58.710938 41.375 -55.425781 42.4375 -51.5625 C 46.007812 -60.738281 49.414062 -66.773438 52.65625 -69.671875 C 55.894531 -72.566406 59.203125 -74.015625 62.578125 -74.015625 Z M 62.578125 -74.015625 "/></g></g></g><g fill="#ffffff" fill-opacity="1"><g transform="translate(391.163432, 240.88262)"><g><path d="M 21.734375 -74.015625 C 26.847656 -74.015625 30.414062 -72.660156 32.4375 -69.953125 C 34.46875 -67.253906 35.484375 -63.15625 35.484375 -57.65625 C 35.484375 -53.3125 34.8125 -45.921875 33.46875 -35.484375 C 32.300781 -26.210938 31.71875 -20.320312 31.71875 -17.8125 C 31.71875 -15.6875 32.03125 -14.140625 32.65625 -13.171875 C 33.289062 -12.210938 34.332031 -11.734375 35.78125 -11.734375 C 38.382812 -11.734375 41.207031 -14.484375 44.25 -19.984375 C 47.289062 -25.492188 49.847656 -32.234375 51.921875 -40.203125 C 54.003906 -48.171875 55.046875 -55.4375 55.046875 -62 C 55.046875 -66.632812 54.898438 -70.109375 54.609375 -72.421875 L 73.296875 -72.421875 C 73.585938 -69.722656 73.734375 -67.40625 73.734375 -65.46875 C 73.734375 -62.382812 73.394531 -57.867188 72.71875 -51.921875 C 72.039062 -45.984375 71.316406 -40.164062 70.546875 -34.46875 C 69.097656 -23.945312 68.375 -17.671875 68.375 -15.640625 C 68.375 -13.128906 69.050781 -11.875 70.40625 -11.875 C 72.914062 -11.875 75.234375 -15.691406 77.359375 -23.328125 L 85.171875 -21 C 84.109375 -15.300781 82.03125 -10.109375 78.9375 -5.421875 C 75.851562 -0.742188 71.507812 1.59375 65.90625 1.59375 C 62.332031 1.59375 59.410156 0.582031 57.140625 -1.4375 C 54.878906 -3.46875 53.75 -6.851562 53.75 -11.59375 C 53.75 -13.332031 53.84375 -15.09375 54.03125 -16.875 C 54.226562 -18.664062 54.375 -20.039062 54.46875 -21 L 54.328125 -21 C 48.628906 -5.9375 40.707031 1.59375 30.5625 1.59375 C 24.570312 1.59375 20.175781 -0.359375 17.375 -4.265625 C 14.582031 -8.179688 13.1875 -13.664062 13.1875 -20.71875 C 13.1875 -23.800781 13.472656 -27.367188 14.046875 -31.421875 C 14.628906 -35.484375 14.96875 -37.953125 15.0625 -38.828125 C 16.320312 -46.742188 16.953125 -52.726562 16.953125 -56.78125 C 16.953125 -59.289062 16.175781 -60.546875 14.625 -60.546875 C 12.113281 -60.546875 9.796875 -56.734375 7.671875 -49.109375 L -0.140625 -51.421875 C 0.429688 -54.609375 1.660156 -57.941406 3.546875 -61.421875 C 5.429688 -64.898438 7.914062 -67.867188 11 -70.328125 C 14.09375 -72.785156 17.671875 -74.015625 21.734375 -74.015625 Z M 21.734375 -74.015625 "/></g></g></g><g fill="#ffffff" fill-opacity="1"><g transform="translate(477.791344, 240.88262)"><g><path d="M 33.75 -74.015625 C 37.707031 -74.015625 41.566406 -73.363281 45.328125 -72.0625 C 49.097656 -70.757812 52.164062 -68.898438 54.53125 -66.484375 C 56.90625 -64.078125 58.09375 -61.28125 58.09375 -58.09375 C 58.09375 -55.476562 57.242188 -53.226562 55.546875 -51.34375 C 53.859375 -49.46875 51.664062 -48.53125 48.96875 -48.53125 C 46.457031 -48.53125 44.378906 -49.398438 42.734375 -51.140625 C 41.085938 -52.878906 40.265625 -54.953125 40.265625 -57.359375 C 40.265625 -58.910156 40.554688 -60.3125 41.140625 -61.5625 C 40.367188 -62.53125 39.207031 -63.253906 37.65625 -63.734375 C 36.113281 -64.222656 34.617188 -64.46875 33.171875 -64.46875 C 30.859375 -64.46875 28.660156 -63.765625 26.578125 -62.359375 C 24.503906 -60.960938 23.46875 -59.15625 23.46875 -56.9375 C 23.46875 -55.476562 23.78125 -54.265625 24.40625 -53.296875 C 25.03125 -52.335938 26.234375 -51.226562 28.015625 -49.96875 C 29.804688 -48.71875 32.78125 -46.882812 36.9375 -44.46875 C 41.863281 -41.664062 45.65625 -39.347656 48.3125 -37.515625 C 50.96875 -35.679688 53.332031 -33.335938 55.40625 -30.484375 C 57.476562 -27.640625 58.515625 -24.382812 58.515625 -20.71875 C 58.515625 -16.46875 57.210938 -12.648438 54.609375 -9.265625 C 52.003906 -5.890625 48.457031 -3.234375 43.96875 -1.296875 C 39.476562 0.628906 34.476562 1.59375 28.96875 1.59375 C 21.820312 1.59375 15.710938 0.0507812 10.640625 -3.03125 C 5.578125 -6.125 3.046875 -10.179688 3.046875 -15.203125 C 3.046875 -18.109375 3.9375 -20.523438 5.71875 -22.453125 C 7.507812 -24.378906 9.707031 -25.34375 12.3125 -25.34375 C 14.914062 -25.34375 17.039062 -24.472656 18.6875 -22.734375 C 20.332031 -21.003906 21.15625 -18.882812 21.15625 -16.375 C 21.15625 -14.925781 20.863281 -13.472656 20.28125 -12.015625 C 20.757812 -11.054688 22.015625 -10.140625 24.046875 -9.265625 C 26.078125 -8.398438 27.863281 -7.96875 29.40625 -7.96875 C 33.363281 -7.96875 36.257812 -8.8125 38.09375 -10.5 C 39.925781 -12.1875 40.84375 -14.335938 40.84375 -16.953125 C 40.84375 -18.585938 40.191406 -20.128906 38.890625 -21.578125 C 37.585938 -23.023438 35.773438 -24.472656 33.453125 -25.921875 C 31.140625 -27.378906 28.726562 -28.78125 26.21875 -30.125 C 18.78125 -34.375 13.585938 -38.066406 10.640625 -41.203125 C 7.703125 -44.347656 6.234375 -48.332031 6.234375 -53.15625 C 6.234375 -56.632812 7.316406 -59.96875 9.484375 -63.15625 C 11.660156 -66.34375 14.847656 -68.945312 19.046875 -70.96875 C 23.242188 -73 28.144531 -74.015625 33.75 -74.015625 Z M 33.75 -74.015625 "/></g></g></g></svg>